# xmcd
#
# Track frame offsets:
#	150
#	20261
#	36632
#	55990
#	67819
#	86080
#	101594
#	117661
#	131295
#	147016
#	164011
#	181470
#	199431
#	215046
#	232224
#
# Disc length: 3462 seconds
#
# Revision: 1
# Processed by: cddbd v1.5.2PL0 Copyright (c) Steve Scherf et al.
# Submitted via: audiograbber 1.83.01
#
DISCID=e80d840f
DTITLE=The Commodores - Greatest Hits Of Lionel Richie - 2
DYEAR=1900
DGENRE=Pop
TTITLE0=Lionel Richie and Diana Ross - Endless Love
TTITLE1=The Commodores - Three Times A Lady
TTITLE2=The Commodores - Easy
TTITLE3=The Commodores - Machine Gun
TTITLE4=The Commodores - Lady (You Bring Me Up)
TTITLE5=The Commodores - Sweet Love
TTITLE6=The Commodores - Just To be Close to You
TTITLE7=The Commodores - Oh No
TTITLE8=The Commodores - Too Hot Ta Trpt
TTITLE9=The Commodores - Still
TTITLE10=The Commodores - Flying High
TTITLE11=The Commodores# - Sail Out
TTITLE12=The Commodores - Brick House
TTITLE13=The Commodores - Wonderland
TTITLE14=The Commodores - Jesus In Love
EXTD=
EXTT0=
EXTT1=
EXTT2=
EXTT3=
EXTT4=
EXTT5=
EXTT6=
EXTT7=
EXTT8=
EXTT9=
EXTT10=
EXTT11=
EXTT12=
EXTT13=
EXTT14=
PLAYORDER=
